<svg xmlns="http://www.w3.org/2000/svg" xmlns:xlink="http://www.w3.org/1999/xlink" width="500" zoomAndPan="magnify" viewBox="0 0 375 374.999991" height="500" preserveAspectRatio="xMidYMid meet" version="1.0"><path fill="#ffffff" d="M 187.195312 0 C 79.160156 0 0 87.023438 0 187.5 C 0 292.210938 85.886719 375 187.195312 375 C 285.410156 375 375 298.714844 375 187.5 C 375 83.242188 294.40625 0 187.195312 0 Z M 187.800781 340.824219 C 102.746094 340.824219 33.796875 270.511719 33.796875 187.5 C 33.796875 107.8125 98.4375 33.796875 187.800781 33.796875 C 272.933594 33.796875 341.207031 101.460938 341.128906 187.5 C 341.128906 279.511719 265.824219 340.824219 187.800781 340.824219 Z M 239.441406 134.578125 L 199.21875 134.578125 L 199.21875 238.304688 L 239.441406 238.304688 C 255.621094 238.304688 292.363281 234.449219 292.363281 186.441406 C 292.363281 138.507812 255.621094 134.578125 239.441406 134.578125 Z M 240.042969 216.605469 L 225 216.605469 L 225 156.351562 L 239.667969 156.277344 C 242.539062 156.277344 266.128906 154.6875 266.128906 186.441406 C 266.128906 205.039062 258.191406 216.605469 240.042969 216.605469 Z M 154.007812 134.578125 L 102.445312 134.578125 L 102.445312 238.382812 L 128.601562 238.382812 L 128.601562 204.886719 L 149.019531 204.886719 C 189.917969 204.886719 192.1875 176.539062 192.1875 169.734375 C 192.1875 146.296875 179.484375 134.578125 154.007812 134.578125 Z M 150.304688 185.457031 L 128.226562 185.457031 L 128.226562 154.007812 L 149.621094 154.007812 C 172.984375 154.007812 171.394531 185.457031 150.304688 185.457031 Z M 150.304688 185.457031 " fill-opacity="1" fill-rule="nonzero"/></svg>